<svg viewBox="0 0 13333.33 13333.33" style="shape-rendering:geometricPrecision; text-rendering:geometricPrecision; image-rendering:optimizeQuality; fill-rule:evenodd; clip-rule:evenodd" version="1.1" xml:space="preserve" xmlns="http://www.w3.org/2000/svg" xmlns:xlink="http://www.w3.org/1999/xlink" xmlns:xodm="http://www.corel.com/coreldraw/odm/2003" fill="#000000"><g id="SVGRepo_bgCarrier" stroke-width="0"></g><g id="SVGRepo_tracerCarrier" stroke-linecap="round" stroke-linejoin="round"></g><g id="SVGRepo_iconCarrier"> <defs> <style type="text/css">  .fil0 {fill:none} .fil1 {fill:#03A9F4} .fil3 {fill:#4FC3F7} .fil2 {fill:#ffffff}  </style> </defs> <g id="Layer_x0020_1"> <rect class="fil0" height="13333.33" width="13333.33" x="-0" y="-0.01"></rect> <g id="_582344626576"> <path class="fil1" d="M10072.36 5053.44c24.44,93.74 37.45,192.04 37.45,293.31l0 3809.74c0,1301.39 -1061.83,2363.22 -2363.22,2363.22l-2159.85 0c-1301.39,0 -2363.22,-1061.83 -2363.22,-2363.22l0 -3809.74c0,-101.28 13.01,-199.58 37.45,-293.31 -366.18,-210.15 -613.41,-605.15 -613.41,-1056.69l0 -473.78c0,-671.17 546.22,-1217.4 1217.4,-1217.4l1051.55 0c207.11,-297.15 551.34,-491.96 940.22,-491.96l1619.89 0c388.88,0 733.11,194.81 940.22,491.96l1051.55 0c671.17,0 1217.4,546.22 1217.4,1217.4l0 473.78c0,451.55 -247.23,846.54 -613.41,1056.69z"></path> <path class="fil2" d="M4386.83 5016.78l4559.68 0c181.49,0 329.98,148.49 329.98,329.98l0 3809.74c0,841.44 -688.45,1529.89 -1529.89,1529.89l-2159.85 0c-841.44,0 -1529.89,-688.45 -1529.89,-1529.89l0 -3809.74c0,-181.49 148.49,-329.98 329.98,-329.98zm3227.77 1127.92l0 0c234.28,0 425.97,191.69 425.97,425.97l0 2315.85c0,234.28 -191.69,425.97 -425.97,425.97l-0 0c-234.29,0 -425.97,-191.69 -425.97,-425.97l0 -2315.85c0,-234.28 191.68,-425.97 425.97,-425.97zm-1895.87 0l0 0c234.29,0 425.97,191.69 425.97,425.97l0 2315.85c0,234.28 -191.68,425.97 -425.97,425.97l-0 0c-234.28,0 -425.97,-191.69 -425.97,-425.97l0 -2315.85c0,-234.28 191.69,-425.97 425.97,-425.97z"></path> <path class="fil2" d="M3864.95 4380.82l5603.43 0c211.24,0 384.07,-172.83 384.07,-384.07l0 -473.78c0,-211.24 -172.83,-384.07 -384.07,-384.07l-1679.79 0 0 -179.99c0,-171.59 -140.39,-311.98 -311.98,-311.98l-1619.89 0c-171.59,0 -311.98,140.39 -311.98,311.98l0 179.99 -1679.79 0c-211.24,0 -384.07,172.83 -384.07,384.07l0 473.78c0,211.24 172.83,384.07 384.07,384.07z"></path> <path class="fil3" d="M7188.63 7593.44l-1043.93 0 0 1293.07c0,234.28 -191.68,425.97 -425.97,425.97 -234.28,0 -425.97,-191.69 -425.97,-425.97l0 -1293.07 -1235.91 0 0 1563.06c0,841.44 688.45,1529.89 1529.89,1529.89l2159.85 0c841.44,0 1529.89,-688.45 1529.89,-1529.89l0 -1563.06 -1235.91 0 0 1293.07c0,234.28 -191.69,425.97 -425.97,425.97 -234.29,0 -425.97,-191.69 -425.97,-425.97l0 -1293.07z"></path> </g> </g> </g></svg>